Exact Audio Copy V0.99 prebeta 1 from 25. May 2007

EAC extraction logfile from 18. July 2007, 5:40

Backstreet Law / Special Delivery

Used drive  : HL-DT-STDVD-RW GWA-4082N   Adapter: 1  ID: 0

Read mode : Burst

Read offset correction                      : 667
Overread into Lead-In and Lead-Out          : No
Fill up missing offset samples with silence : Yes
Delete leading and trailing silent blocks   : No
Used interface                              : Native Win32 interface for Win NT & 2000
Gap handling                                : Not detected, thus appended to previous track

Used output format              : User Defined Encoder
Selected bitrate                : 128 kBit/s
Quality                         : High
Add ID3 tag                     : No
Command line compressor         : C:Program FilesExact Audio CopyFlacflac.exe
Additional command line options : -8 -A tukey(0.25) -A gauss(0.1875) -V -T "artist=%a" -T "title=%t" -T "album=%g" -T "date=%y" -T "tracknumber=%n" -T "genre=%m" %s 


TOC of the extracted CD

     Track |   Start  |  Length  | Start sector | End sector 
    ---------------------------------------------------------
        1  |  0:00.00 |  2:58.02 |         0    |    13351   
        2  |  2:58.02 |  2:57.68 |     13352    |    26694   
        3  |  5:55.70 |  4:36.20 |     26695    |    47414   
        4  | 10:32.15 |  4:08.17 |     47415    |    66031   
        5  | 14:40.32 |  3:16.55 |     66032    |    80786   
        6  | 17:57.12 |  4:40.05 |     80787    |   101791   
        7  | 22:37.17 |  4:11.45 |    101792    |   120661   
        8  | 26:48.62 |  3:06.00 |    120662    |   134611   
        9  | 29:54.62 |  1:17.40 |    134612    |   140426   
       10  | 31:12.27 |  3:13.05 |    140427    |   154906   
       11  | 34:25.32 |  4:17.20 |    154907    |   174201   
       12  | 38:42.52 |  3:47.43 |    174202    |   191269   
       13  | 42:30.20 | 26:30.20 |    191270    |   310539   


Track  1

     Filename \ZeusMyFilesroxaudiomusicflacBackstreet LawSpecial DeliveryBackstreet Law - Special Delivery - 01 - Idiot System.wav

     Peak level 92.2 %
     Test CRC C652F174
     Copy CRC C652F174
     Track not present in AccurateRip database
     Copy OK

Track  2

     Filename \ZeusMyFilesroxaudiomusicflacBackstreet LawSpecial DeliveryBackstreet Law - Special Delivery - 02 - what I Do.wav

     Peak level 93.2 %
     Test CRC 90162C61
     Copy CRC 90162C61
     Track not present in AccurateRip database
     Copy OK

Track  3

     Filename \ZeusMyFilesroxaudiomusicflacBackstreet LawSpecial DeliveryBackstreet Law - Special Delivery - 03 - Special Delivery.wav

     Peak level 94.0 %
     Test CRC F49FE2A3
     Copy CRC F49FE2A3
     Track not present in AccurateRip database
     Copy OK

Track  4

     Filename \ZeusMyFilesroxaudiomusicflacBackstreet LawSpecial DeliveryBackstreet Law - Special Delivery - 04 - Six Feet Under.wav

     Peak level 95.3 %
     Test CRC 1AA429B7
     Copy CRC 1AA429B7
     Track not present in AccurateRip database
     Copy OK

Track  5

     Filename \ZeusMyFilesroxaudiomusicflacBackstreet LawSpecial DeliveryBackstreet Law - Special Delivery - 05 - Plastic.wav

     Peak level 93.4 %
     Test CRC 831B6949
     Copy CRC 831B6949
     Track not present in AccurateRip database
     Copy OK

Track  6

     Filename \ZeusMyFilesroxaudiomusicflacBackstreet LawSpecial DeliveryBackstreet Law - Special Delivery - 06 - Party in the Parking Lot.wav

     Peak level 94.6 %
     Test CRC 01AEFFF6
     Copy CRC 01AEFFF6
     Track not present in AccurateRip database
     Copy OK

Track  7

     Filename \ZeusMyFilesroxaudiomusicflacBackstreet LawSpecial DeliveryBackstreet Law - Special Delivery - 07 - Evil Man.wav

     Peak level 94.3 %
     Test CRC D577F7C9
     Copy CRC D577F7C9
     Track not present in AccurateRip database
     Copy OK

Track  8

     Filename \ZeusMyFilesroxaudiomusicflacBackstreet LawSpecial DeliveryBackstreet Law - Special Delivery - 08 - Secrets.wav

     Peak level 94.0 %
     Test CRC 0673480D
     Copy CRC 0673480D
     Track not present in AccurateRip database
     Copy OK

Track  9

     Filename \ZeusMyFilesroxaudiomusicflacBackstreet LawSpecial DeliveryBackstreet Law - Special Delivery - 09 - Tri City Explosion.wav

     Peak level 88.3 %
     Test CRC B556E1D4
     Copy CRC B556E1D4
     Track not present in AccurateRip database
     Copy OK

Track 10

     Filename \ZeusMyFilesroxaudiomusicflacBackstreet LawSpecial DeliveryBackstreet Law - Special Delivery - 10 - 2 hour shower.wav

     Peak level 94.4 %
     Test CRC AA711CDE
     Copy CRC AA711CDE
     Track not present in AccurateRip database
     Copy OK

Track 11

     Filename \ZeusMyFilesroxaudiomusicflacBackstreet LawSpecial DeliveryBackstreet Law - Special Delivery - 11 - Bulemic Mind.wav

     Peak level 94.0 %
     Test CRC 3A4B1E03
     Copy CRC 3A4B1E03
     Track not present in AccurateRip database
     Copy OK

Track 12

     Filename \ZeusMyFilesroxaudiomusicflacBackstreet LawSpecial DeliveryBackstreet Law - Special Delivery - 12 - Disco Mover.wav

     Peak level 94.2 %
     Test CRC 0F715082
     Copy CRC 0F715082
     Track not present in AccurateRip database
     Copy OK

Track 13

     Filename \ZeusMyFilesroxaudiomusicflacBackstreet LawSpecial DeliveryBackstreet Law - Special Delivery - 13 - xLike a Virgin.wav

     Peak level 90.9 %
     Test CRC D2D4C36C
     Copy CRC FB198949
     Track not present in AccurateRip database
     Copy OK

No errors occurred

End of status report
